<svg width="1453" height="411" viewBox="0 0 1453 411" fill="none" xmlns="http://www.w3.org/2000/svg">
<g clip-path="url(#clip0)">
<path d="M532.1 85.8C550.4 85.8 559.6 95 559.6 113.3V154.5C559.6 172.8 550.4 182 532.1 182H490.9V85.8H532.1ZM538.9 113.3C538.9 108.7 536.6 106.4 532 106.4H511.4V161.3H532C536.6 161.3 538.9 159 538.9 154.4V113.3Z" fill="white"/>
<path d="M593.8 85.8V106.4H573.2V85.8H593.8ZM593.8 113.3V182H573.2V113.3H593.8Z" fill="white"/>
<path d="M607.6 181.9V164.7H640.6C643.8 164.7 645.4 163.3 645.4 160.6C645.4 157.4 643.8 155.8 640.6 155.8H628.2C614.5 155.8 607.6 149.6 607.6 137.3V131.8C607.6 119.4 614.5 113.3 628.2 113.3H662.5V130.5H633C629.8 130.5 628.2 131.9 628.2 134.6C628.2 136.9 629.8 138 633 138H645.4C659.1 138 666 144.6 666 157.9V163.4C666 175.8 659.1 181.9 645.4 181.9H607.6Z" fill="white"/>
<path d="M700.3 154.5C700.3 159.1 702.6 161.4 707.2 161.4H734.7V182H707.2C688.9 182 679.7 172.8 679.7 154.5V140.8C679.7 122.5 688.9 113.3 707.2 113.3H734.7V133.9H707.2C702.6 133.9 700.3 136.2 700.3 140.8V154.5Z" fill="white"/>
<path d="M768.9 85.8V106.4H748.3V85.8H768.9ZM768.9 113.3V182H748.3V113.3H768.9Z" fill="white"/>
<path d="M803.2 209.4H782.6V113.3H801.1L803.2 118.8C805.5 115.1 810.1 113.3 816.9 113.3C835.2 113.3 844.4 122.5 844.4 140.8V154.5C844.4 172.8 835.2 182 816.9 182C810 182 805.5 180.2 803.2 176.5V209.4ZM817 133.9C810.1 133.9 805.6 135 803.3 137.3V157.9C805.6 160.2 810.2 161.3 817 161.3C821.6 161.3 823.9 159 823.9 154.4V140.7C823.8 136.2 821.5 133.9 817 133.9Z" fill="white"/>
<path d="M878.8 85.8V181.9H858.2V85.8H878.8Z" fill="white"/>
<path d="M913.1 155.8V157.9C913.1 162.5 915.4 164.8 920 164.8H950.9V182H920C901.7 182 892.5 172.8 892.5 154.5V140.8C892.5 122.5 901.7 113.3 920 113.3H926.9C945.2 113.3 954.4 122.5 954.4 140.8V155.9H913.1V155.8ZM913.1 138V140.7H933.7V138C933.7 133.4 931.4 131.1 926.8 131.1H919.9C915.4 131.1 913.1 133.4 913.1 138Z" fill="white"/>
<path d="M995.5 85.8H1024.3L1047 144.2L1069.7 85.8H1098.5V181.9H1077.9V123.5L1055.9 181.9H1038L1016 123.5V181.9H995.4V85.8H995.5Z" fill="white"/>
<path d="M1139.6 132.5H1119V113.3H1139.6C1162.5 113.3 1173.9 123.8 1173.9 144.9V182H1155.4L1153.3 176.5C1151 180.2 1146.4 182 1139.6 182H1132.7C1119 182 1112.1 174.9 1112.1 160.7C1112.1 146.5 1119 139.4 1132.7 139.4H1139.6C1146.5 139.4 1151 141.2 1153.3 144.9C1153.4 136.6 1148.8 132.5 1139.6 132.5ZM1139.6 165.5C1146.5 165.5 1151 164.4 1153.3 162.1V158C1151 155.7 1146.4 154.6 1139.6 154.6C1135 154.6 1132.7 156.4 1132.7 160.1C1132.7 163.8 1135.1 165.5 1139.6 165.5Z" fill="white"/>
<path d="M1208.3 85.8V144.2L1226.8 113.3H1249.5L1228.2 147.6L1249.5 181.9H1226.8L1208.3 151V181.9H1187.7V85.8H1208.3Z" fill="white"/>
<path d="M1283.8 155.8V157.9C1283.8 162.5 1286.1 164.8 1290.7 164.8H1321.6V182H1290.7C1272.4 182 1263.2 172.8 1263.2 154.5V140.8C1263.2 122.5 1272.4 113.3 1290.7 113.3H1297.6C1315.9 113.3 1325.1 122.5 1325.1 140.8V155.9H1283.8V155.8ZM1283.8 138V140.7H1304.4V138C1304.4 133.4 1302.1 131.1 1297.5 131.1H1290.6C1286.1 131.1 1283.8 133.4 1283.8 138Z" fill="white"/>
<path d="M1359.3 181.9H1338.7V113.2H1357.2L1359.3 118.7C1361.6 115 1366.2 113.2 1373 113.2H1379.9V133.8H1373C1366.1 133.8 1361.6 134.9 1359.3 137.2V181.9Z" fill="white"/>
<path d="M1390.2 181.9V164.7H1423.2C1426.4 164.7 1428 163.3 1428 160.6C1428 157.4 1426.4 155.8 1423.2 155.8H1410.8C1397.1 155.8 1390.2 149.6 1390.2 137.3V131.8C1390.2 119.4 1397.1 113.3 1410.8 113.3H1445.1V130.5H1415.6C1412.4 130.5 1410.8 131.9 1410.8 134.6C1410.8 136.9 1412.4 138 1415.6 138H1428C1441.7 138 1448.6 144.6 1448.6 157.9V163.4C1448.6 175.8 1441.7 181.9 1428 181.9H1390.2Z" fill="white"/>
<path d="M508 237V324.8H495.5V237H508Z" fill="white"/>
<path d="M587.3 237L624.9 299.7V237H637.4V324.8H625L587.3 262V324.7H574.8V237H587.3Z" fill="white"/>
<path d="M704.2 324.8V312.3H738.7C745 312.3 748.1 309.2 748.1 302.9V296.6C748.1 290.3 745 287.2 738.7 287.2H726.2C711.6 287.2 704.2 279.9 704.2 265.2V258.9C704.2 244.3 711.5 236.9 726.2 236.9H760.7V249.4H726.2C719.9 249.4 716.8 252.5 716.8 258.8V265.1C716.8 271.4 719.9 274.5 726.2 274.5H738.7C753.3 274.5 760.7 281.8 760.7 296.5V302.8C760.7 317.4 753.4 324.8 738.7 324.8H704.2Z" fill="white"/>
<path d="M883.9 237V249.5H861.9V324.8H849.4V249.5H827.4V237H883.9Z" fill="white"/>
<path d="M963.2 237V324.8H950.7V237H963.2Z" fill="white"/>
<path d="M1086.4 237V249.5H1064.4V324.8H1051.9V249.5H1029.9V237H1086.4Z" fill="white"/>
<path d="M1212.7 237V302.9C1212.7 317.5 1205.4 324.9 1190.7 324.9H1175C1160.4 324.9 1153 317.6 1153 302.9V237H1165.5V302.9C1165.5 309.2 1168.6 312.3 1174.9 312.3H1190.6C1196.9 312.3 1200 309.2 1200 302.9V237H1212.7Z" fill="white"/>
<path d="M1335.9 237V249.5H1313.9V324.8H1301.4V249.5H1279.4V237H1335.9Z" fill="white"/>
<path d="M1452.8 274.6V287.1H1415.2V312.2H1452.8V324.7H1402.6V237H1452.8V249.5H1415.2V274.6H1452.8Z" fill="white"/>
<path d="M17.5 240.3C19.2 249.7 21.5 258.9 24.4 267.8C26.6 273.1 29 278.3 31.6 283.3C73.4 282 115.1 280.6 156.9 282.1C167.3 282.5 264.3 285.6 264.3 291.4C264.3 297.2 167.3 300.3 156.9 300.7C118.2 302.1 79.6 301 41 299.8C54.1 320.7 70.5 338.9 89.2 353.5C111.7 353.1 134.3 353.1 156.9 353.9C167.3 354.3 264.3 357.4 264.3 363.2C264.3 369 167.3 372.1 156.9 372.5C144.4 373 132 373.1 119.5 373.1C145.7 386.8 174.9 394.4 205.4 394.4C257.9 394.4 306.5 371.8 342.5 334.5C308.3 335.5 274.1 336.2 239.8 335C229.4 334.6 132.4 331.5 132.4 325.7C132.4 319.9 229.4 316.8 239.8 316.4C279 315 318.2 316.1 357.3 317.3C368.9 302.4 378.6 285.8 386.2 267.8C386.9 265.7 387.5 263.5 388.1 261.4C383.5 261.5 378.9 261.6 374.3 261.7C329.4 263 284.6 264.8 239.7 263.2C229.3 262.8 132.3 259.7 132.3 253.9C132.3 248.1 229.3 245 239.7 244.6C284.6 243 329.4 244.7 374.3 246.1C380.1 246.2 386 246.4 391.8 246.5C392.2 244.4 392.7 242.3 393.1 240.2H17.5V240.3Z" fill="white"/>
<path d="M205.3 0C92.1 0 0 92.1 0 205.3C0 318.5 92.1 410.6 205.3 410.6C318.5 410.6 410.6 318.5 410.6 205.3C410.6 92.1 318.5 0 205.3 0ZM205.3 17.5C308.9 17.5 393.1 101.8 393.1 205.3C393.1 207.3 393 209.2 393 211.2C392.9 214.2 392.7 217.2 392.5 220.2L286.2 94.2L245.7 142.2L205.3 94.2L164.9 142.2L124.4 94.2L18.1 220.2C17.9 217.2 17.7 214.2 17.6 211.2C17.5 209.2 17.5 207.3 17.5 205.3C17.5 101.7 101.7 17.5 205.3 17.5ZM124.4 122.5V190.1L96.2 223.6H39.1L124.4 122.5ZM205.3 122.5V190.1L177 223.6H120L205.3 122.5ZM286.2 122.5V223.6H200.9L286.2 122.5ZM388.3 247.5C387.3 252 386 256.5 384.7 260.9C384.1 262.8 383.5 264.8 382.8 266.7C357.3 340.2 287.4 393.1 205.3 393.1C123.2 393.1 53.3 340.1 27.8 266.6C25 258.6 22.7 250.3 21.1 241.8H389.6C389.1 243.7 388.7 245.6 388.3 247.5Z" fill="white"/>
</g>
<defs>
<clipPath id="clip0">
<rect width="1452.8" height="410.6" fill="white"/>
</clipPath>
</defs>
</svg>
